<?xml version="1.0" standalone="no"?>
<!DOCTYPE svg PUBLIC "-//W3C//DTD SVG 20010904//EN"
 "http://www.w3.org/TR/2001/REC-SVG-20010904/DTD/svg10.dtd">
<svg version="1.0" xmlns="http://www.w3.org/2000/svg"
 width="400.000000pt" height="400.000000pt" viewBox="0 0 400.000000 400.000000"
 preserveAspectRatio="xMidYMid meet">
<metadata>
Created by potrace 1.11, written by Peter Selinger 2001-2013
</metadata>
<g transform="translate(0.000000,400.000000) scale(0.100000,-0.100000)"
fill="#000000" stroke="none">
<path d="M1845 3210 c-16 -4 -64 -16 -105 -25 -41 -10 -79 -22 -85 -26 -5 -5
-18 -9 -29 -9 -11 0 -69 -25 -130 -54 -131 -65 -252 -158 -344 -266 -162 -189
-198 -218 -292 -239 -134 -31 -180 -45 -258 -82 -251 -117 -448 -351 -503
-599 -27 -121 -35 -247 -23 -336 22 -158 35 -199 96 -319 42 -81 100 -158 175
-232 129 -126 269 -196 483 -242 75 -16 2291 -10 2365 6 478 107 805 551 743
1008 -21 159 -89 325 -178 439 -83 106 -239 229 -355 279 -22 10 -47 22 -55
26 -17 9 -126 36 -210 52 l-55 10 -55 86 c-66 104 -222 263 -323 332 -71 47
-199 112 -247 125 -14 4 -34 11 -45 16 -21 9 -77 24 -155 42 -57 13 -375 19
-415 8z"/>
</g>
</svg>
