<?xml version="1.0" standalone="no"?>
<!DOCTYPE svg PUBLIC "-//W3C//DTD SVG 20010904//EN"
 "http://www.w3.org/TR/2001/REC-SVG-20010904/DTD/svg10.dtd">
<svg version="1.0" xmlns="http://www.w3.org/2000/svg"
 width="180.000000pt" height="180.000000pt" viewBox="0 0 180.000000 180.000000"
 preserveAspectRatio="xMidYMid meet">
<metadata>
Created by potrace 1.11, written by Peter Selinger 2001-2013
</metadata>
<g transform="translate(0.000000,180.000000) scale(0.100000,-0.100000)"
fill="#000000" stroke="none">
<path d="M764 1440 c-114 -33 -216 -116 -269 -221 -22 -43 -27 -47 -78 -57
-206 -41 -336 -212 -325 -426 9 -176 109 -296 293 -353 54 -16 102 -18 515
-18 519 0 519 0 609 81 71 64 102 134 102 230 0 150 -79 257 -226 305 -48 15
-50 18 -53 55 -7 106 -44 196 -73 179 -5 -4 -9 -1 -9 5 0 5 -21 20 -47 33 -27
12 -50 25 -53 28 -3 3 -16 12 -30 19 -19 10 -16 3 16 -31 91 -96 118 -201 88
-346 l-6 -33 69 0 c54 0 80 -5 114 -23 170 -90 132 -348 -57 -387 -36 -8 -194
-10 -481 -8 -416 3 -430 4 -484 26 -115 46 -178 134 -182 250 -3 119 53 220
153 276 42 24 70 31 129 36 74 5 75 6 81 35 21 100 101 198 196 242 45 20 73
25 143 27 98 1 98 0 -9 58 l-65 35 -61 -17z"/>
<path d="M1580 1325 c0 -32 2 -35 30 -35 28 0 30 3 30 35 0 32 -2 35 -30 35
-28 0 -30 -3 -30 -35z"/>
<path d="M1020 1346 c0 -2 7 -7 16 -10 8 -3 12 -2 9 4 -6 10 -25 14 -25 6z"/>
<path d="M1420 1195 l0 -65 65 0 65 0 0 65 0 65 -65 0 -65 0 0 -65z"/>
<path d="M1600 1070 l0 -50 50 0 50 0 0 50 0 50 -50 0 -50 0 0 -50z"/>
<path d="M900 810 l0 -49 -27 15 c-40 23 -79 5 -100 -43 -13 -33 -14 -43 -2
-78 19 -54 60 -75 101 -52 15 9 28 12 28 7 0 -6 11 -10 25 -10 l25 0 0 130 0
130 -25 0 c-23 0 -25 -3 -25 -50z m-12 -72 c16 -16 16 -80 0 -96 -7 -7 -21
-12 -33 -12 -31 0 -45 19 -45 60 0 41 14 60 45 60 12 0 26 -5 33 -12z"/>
<path d="M1090 840 c0 -15 7 -20 25 -20 18 0 25 5 25 20 0 15 -7 20 -25 20
-18 0 -25 -5 -25 -20z"/>
<path d="M395 728 c13 -35 28 -76 35 -92 14 -37 7 -56 -20 -56 -13 0 -20 -7
-20 -19 0 -40 69 -35 85 6 24 62 75 207 75 215 0 5 -10 8 -21 6 -16 -2 -26
-17 -39 -61 -10 -32 -21 -61 -23 -63 -3 -3 -15 24 -27 60 -19 57 -25 66 -45
66 l-24 0 24 -62z"/>
<path d="M580 770 c0 -17 7 -20 40 -20 22 0 40 -3 40 -6 0 -4 -20 -29 -45 -55
-25 -26 -45 -57 -45 -69 0 -19 6 -20 85 -20 78 0 85 2 85 20 0 17 -7 20 -50
20 -27 0 -50 3 -50 6 0 4 20 29 45 55 25 26 45 57 45 69 0 18 -6 20 -75 20
-68 0 -75 -2 -75 -20z"/>
<path d="M1223 775 c-23 -10 -35 -24 -43 -52 -27 -88 48 -155 132 -120 72 30
74 143 2 173 -41 17 -50 17 -91 -1z m85 -37 c7 -7 12 -28 12 -48 0 -43 -14
-60 -50 -60 -36 0 -50 17 -50 60 0 20 5 41 12 48 15 15 61 15 76 0z"/>
<path d="M1090 690 c0 -89 0 -90 25 -90 25 0 25 1 25 90 0 89 0 90 -25 90 -25
0 -25 -1 -25 -90z"/>
<path d="M990 630 c0 -27 3 -30 30 -30 27 0 30 3 30 30 0 27 -3 30 -30 30 -27
0 -30 -3 -30 -30z"/>
</g>
</svg>
